<svg xmlns="http://www.w3.org/2000/svg" viewBox="0 0 156 44" width="156" height="44" fill="none" font-family="'Segoe UI',Helvetica,Arial,sans-serif">
<defs>
  <linearGradient id="g" x1="0" y1="0" x2="0.9" y2="1"><stop offset="0" stop-color="#4A90F5"/><stop offset="1" stop-color="#1657C4"/></linearGradient>
  <linearGradient id="sheen" x1="0" y1="0" x2="0" y2="1"><stop offset="0" stop-color="#fff" stop-opacity="0.32"/><stop offset="1" stop-color="#fff" stop-opacity="0"/></linearGradient>
  <filter id="sh" x="-30%" y="-30%" width="160%" height="180%"><feDropShadow dx="0" dy="3" stdDeviation="3" flood-color="#000" flood-opacity="0.5"/></filter>
  <style>.fl{transform-box:fill-box;transform-origin:center;animation:f 3.6s ease-in-out infinite}@keyframes f{0%,100%{transform:translateY(0)}50%{transform:translateY(-2px)}}</style>
</defs>
<g transform="translate(2,6)"><g class="fl">
  <rect width="152" height="32" rx="12" fill="url(#g)" filter="url(#sh)"/>
  <rect x="1" y="1" width="150" height="15" rx="11" fill="url(#sheen)"/>
  <g transform="translate(13,8) scale(0.667)" fill="#fff"><path fill-rule="evenodd" clip-rule="evenodd" d="M12 .297c-6.63 0-12 5.373-12 12 0 5.303 3.438 9.8 8.205 11.385.6.113.82-.258.82-.577 0-.285-.01-1.04-.015-2.04-3.338.724-4.042-1.61-4.042-1.61C4.422 18.07 3.633 17.7 3.633 17.7c-1.087-.744.084-.729.084-.729 1.205.084 1.838 1.236 1.838 1.236 1.07 1.835 2.809 1.305 3.495.998.108-.776.417-1.305.76-1.605-2.665-.3-5.466-1.332-5.466-5.93 0-1.31.465-2.38 1.235-3.22-.135-.303-.54-1.523.105-3.176 0 0 1.005-.322 3.3 1.23.96-.267 1.98-.399 3-.405 1.02.006 2.04.138 3 .405 2.28-1.552 3.285-1.23 3.285-1.23.645 1.653.24 2.873.12 3.176.765.84 1.23 1.91 1.23 3.22 0 4.61-2.805 5.625-5.475 5.92.42.36.81 1.096.81 2.22 0 1.606-.015 2.896-.015 3.286 0 .315.21.69.825.57C20.565 22.092 24 17.592 24 12.297c0-6.627-5.373-12-12-12"/></g>
  <text x="38" y="21" font-size="13" font-weight="700" fill="#fff">TemporalLaw-AI</text>
</g></g>
</svg>
